<svg width="37" height="37" viewBox="0 0 37 37" fill="none" xmlns="http://www.w3.org/2000/svg">
<path d="M23.4879 13.801H21.5361V23.1898H23.4879C26.0686 23.1898 27.2364 21.6473 27.2364 18.5185C27.2364 15.3874 26.0571 13.801 23.4879 13.801Z" fill="white"/>
<path d="M0 9.25C0 8.02337 0.487275 6.84699 1.35463 5.97963C2.22199 5.11228 3.39837 4.625 4.625 4.625H32.375C33.6016 4.625 34.778 5.11228 35.6454 5.97963C36.5127 6.84699 37 8.02337 37 9.25V27.75C37 28.9766 36.5127 30.153 35.6454 31.0204C34.778 31.8877 33.6016 32.375 32.375 32.375H4.625C3.39837 32.375 2.22199 31.8877 1.35463 31.0204C0.487275 30.153 0 28.9766 0 27.75V9.25ZM11.988 19.351C13.4819 19.351 14.4277 20.2251 14.4392 21.4322C14.4578 22.6741 13.4518 23.5574 11.9279 23.5574C10.545 23.5482 9.52981 22.8059 9.45813 21.8092H6.9375C7.00688 23.9228 8.76669 25.7127 11.9163 25.7127C14.7838 25.7127 17.2004 24.1864 17.1703 21.5548C17.1403 19.351 15.4429 18.3636 14.1826 18.2433V18.0999C15.2001 17.9381 16.7841 16.8813 16.7448 14.9202C16.7148 12.8251 14.8948 11.2896 11.9973 11.3012C8.96788 11.3128 7.27281 12.9986 7.20113 15.1631H9.75181C9.80269 14.2589 10.6375 13.4264 11.9163 13.4264C13.1466 13.4264 14.0623 14.1895 14.0623 15.3064C14.0716 16.4141 13.1766 17.2374 11.9163 17.2374H10.4548V19.351H11.988ZM18.7914 25.4375H23.8534C28.0391 25.4375 30.0625 22.8776 30.0625 18.4653C30.0625 14.0854 28.0714 11.5648 23.8534 11.5648H18.7914V25.4375Z" fill="white"/>
</svg>
