<svg width="40" height="40" viewBox="0 0 40 40" fill="none" xmlns="http://www.w3.org/2000/svg">
<path d="M10.4167 12.5C10.4167 11.6792 10.5783 10.8665 10.8924 10.1082C11.2065 9.34994 11.6669 8.66095 12.2472 8.08058C12.8276 7.50022 13.5166 7.03985 14.2749 6.72575C15.0332 6.41166 15.8459 6.25 16.6667 6.25C17.4874 6.25 18.3002 6.41166 19.0584 6.72575C19.8167 7.03985 20.5057 7.50022 21.0861 8.08058C21.6665 8.66095 22.1268 9.34994 22.4409 10.1082C22.755 10.8665 22.9167 11.6792 22.9167 12.5C22.9167 14.1576 22.2582 15.7473 21.0861 16.9194C19.914 18.0915 18.3243 18.75 16.6667 18.75C15.0091 18.75 13.4194 18.0915 12.2472 16.9194C11.0751 15.7473 10.4167 14.1576 10.4167 12.5ZM3.75 28.3333C3.75 26.6757 4.40848 25.086 5.58058 23.9139C6.75268 22.7418 8.3424 22.0833 10 22.0833H10.5667C10.8778 22.0844 11.18 22.1322 11.4733 22.2267L12.9167 22.6983C14.5098 23.2188 16.1938 23.4021 17.8617 23.2367C17.9238 23.2315 17.9863 23.2422 18.0431 23.2679C18.1 23.2935 18.1493 23.3333 18.1865 23.3833C18.2238 23.4334 18.2476 23.4921 18.2558 23.5539C18.264 23.6158 18.2562 23.6787 18.2333 23.7367C17.7484 24.9321 17.4994 26.21 17.5 27.5C17.5 29.5867 18.14 31.525 19.2333 33.1283C19.385 33.3517 19.2383 33.6667 18.9667 33.675C14.5943 33.8266 10.2177 33.5475 5.9 32.8417C5.30031 32.743 4.75508 32.4347 4.36137 31.9718C3.96766 31.5088 3.75102 30.9211 3.75 30.3133V28.3333Z" fill="white"/>
<path fill-rule="evenodd" clip-rule="evenodd" d="M20 27.5C20 29.12 20.5133 30.62 21.3867 31.845C22.0781 32.8225 22.9944 33.6194 24.0583 34.1685C25.1223 34.7176 26.3027 35.0028 27.5 35C28.9834 35 30.4334 34.5601 31.6668 33.736C32.9001 32.9119 33.8614 31.7406 34.4291 30.3701C34.9968 28.9997 35.1453 27.4917 34.8559 26.0368C34.5665 24.582 33.8522 23.2456 32.8033 22.1967C31.7544 21.1478 30.418 20.4335 28.9632 20.1441C27.5083 19.8547 26.0003 20.0032 24.6299 20.5709C23.2594 21.1386 22.0881 22.0999 21.264 23.3332C20.4399 24.5666 20 26.0166 20 27.5ZM27.5 32.5C26.6068 32.5005 25.7297 32.2616 24.96 31.8083L31.8083 24.96C32.2563 25.7195 32.4954 26.5839 32.5014 27.4657C32.5075 28.3474 32.2803 29.215 31.8428 29.9806C31.4054 30.7462 30.7733 31.3825 30.0106 31.8249C29.2479 32.2674 28.3817 32.5003 27.5 32.5ZM23.1917 30.04L30.04 23.1917C29.0849 22.6273 27.9693 22.3965 26.8687 22.5358C25.7681 22.675 24.7451 23.1763 23.9607 23.9607C23.1763 24.7451 22.675 25.7682 22.5358 26.8687C22.3965 27.9693 22.6273 29.0849 23.1917 30.04Z" fill="white"/>
</svg>
