<svg width="39" height="39" viewBox="0 0 39 39" fill="none" xmlns="http://www.w3.org/2000/svg">
<path d="M24.375 26.0001L17.875 32.5001H30.875C32.6625 32.5001 34.125 31.0376 34.125 29.2501C34.125 27.4626 32.6625 26.0001 30.875 26.0001H24.375ZM19.5975 11.6838L5.34625 25.9351C5.05375 26.2276 4.875 26.6501 4.875 27.0726V30.8751C4.875 31.7688 5.60625 32.5001 6.5 32.5001H10.3025C10.7413 32.5001 11.1475 32.3213 11.4563 32.0288L25.7075 17.7776L19.5975 11.6838ZM30.4037 13.0651C30.5544 12.9147 30.6739 12.7362 30.7555 12.5396C30.837 12.343 30.879 12.1323 30.879 11.9194C30.879 11.7066 30.837 11.4959 30.7555 11.2993C30.6739 11.1027 30.5544 10.9241 30.4037 10.7738L26.6013 6.97132C26.4509 6.82067 26.2723 6.70116 26.0758 6.61961C25.8792 6.53807 25.6684 6.49609 25.4556 6.49609C25.2428 6.49609 25.0321 6.53807 24.8355 6.61961C24.6389 6.70116 24.4603 6.82067 24.31 6.97132L21.3363 9.94507L27.43 16.0388L30.4037 13.0651Z" fill="white"/>
</svg>
