<svg width="39" height="39" viewBox="0 0 39 39" fill="none" xmlns="http://www.w3.org/2000/svg">
<path fill-rule="evenodd" clip-rule="evenodd" d="M19.5 1.625C19.0342 1.62494 18.5738 1.72502 18.15 1.91845C17.7262 2.11189 17.349 2.39417 17.0439 2.74615C16.7387 3.09813 16.5128 3.5116 16.3815 3.95852C16.2501 4.40545 16.2164 4.87539 16.2825 5.3365C13.9269 6.03118 11.8593 7.4696 10.3889 9.43674C8.91857 11.4039 8.12435 13.7941 8.125 16.25V29.25H6.5C6.06902 29.25 5.6557 29.4212 5.35095 29.726C5.0462 30.0307 4.875 30.444 4.875 30.875C4.875 31.306 5.0462 31.7193 5.35095 32.0241C5.6557 32.3288 6.06902 32.5 6.5 32.5H32.5C32.931 32.5 33.3443 32.3288 33.649 32.0241C33.9538 31.7193 34.125 31.306 34.125 30.875C34.125 30.444 33.9538 30.0307 33.649 29.726C33.3443 29.4212 32.931 29.25 32.5 29.25H30.875V16.25C30.8757 13.7941 30.0814 11.4039 28.6111 9.43674C27.1407 7.4696 25.0731 6.03118 22.7175 5.3365C22.7392 5.18483 22.75 5.031 22.75 4.875C22.75 4.01305 22.4076 3.1864 21.7981 2.5769C21.1886 1.96741 20.362 1.625 19.5 1.625ZM22.75 35.75C22.75 36.181 22.5788 36.5943 22.274 36.8991C21.9693 37.2038 21.556 37.375 21.125 37.375H17.875C17.444 37.375 17.0307 37.2038 16.726 36.8991C16.4212 36.5943 16.25 36.181 16.25 35.75C16.25 35.319 16.4212 34.9057 16.726 34.601C17.0307 34.2962 17.444 34.125 17.875 34.125H21.125C21.556 34.125 21.9693 34.2962 22.274 34.601C22.5788 34.9057 22.75 35.319 22.75 35.75Z" fill="white"/>
</svg>
