<svg width="38" height="38" viewBox="0 0 38 38" fill="none" xmlns="http://www.w3.org/2000/svg">
<path d="M12.667 11.0834C13.5068 11.0834 14.3123 11.417 14.9062 12.0109C15.5 12.6048 15.8337 13.4102 15.8337 14.2501V22.1667C15.8337 23.0066 15.5 23.8121 14.9062 24.4059C14.3123 24.9998 13.5068 25.3334 12.667 25.3334C11.8271 25.3334 11.0217 24.9998 10.4278 24.4059C9.83395 23.8121 9.50033 23.0066 9.50033 22.1667V14.2501C9.50033 13.4102 9.83395 12.6048 10.4278 12.0109C11.0217 11.417 11.8271 11.0834 12.667 11.0834ZM22.167 22.1667C22.167 26.8692 18.747 30.7801 14.2503 31.5401V34.8334H11.0837V31.5401C6.58699 30.7801 3.16699 26.8692 3.16699 22.1667H6.33366C6.33366 23.8465 7.00092 25.4574 8.18865 26.6451C9.37638 27.8328 10.9873 28.5001 12.667 28.5001C14.3467 28.5001 15.9576 27.8328 17.1453 26.6451C18.3331 25.4574 19.0003 23.8465 19.0003 22.1667H22.167ZM33.8995 14.8992L27.1862 21.6284L28.7853 15.8334H22.167C21.3271 15.8334 20.5217 15.4998 19.9278 14.9059C19.334 14.3121 19.0003 13.5066 19.0003 12.6667V6.33341C19.0003 5.49356 19.334 4.68811 19.9278 4.09424C20.5217 3.50038 21.3271 3.16675 22.167 3.16675H31.667C32.5068 3.16675 33.3123 3.50038 33.9062 4.09424C34.5 4.68811 34.8337 5.49356 34.8337 6.33341V12.6667C34.8337 13.5376 34.4853 14.3292 33.8995 14.8992Z" fill="white"/>
</svg>
