<svg width="21" height="22" viewBox="0 0 21 22" fill="none" xmlns="http://www.w3.org/2000/svg">
<path d="M10.5003 11.9768L2.46682 17.3328C2.40124 17.3764 2.32505 17.4014 2.24636 17.4052C2.16767 17.409 2.08944 17.3913 2.01999 17.3541C1.95054 17.317 1.89247 17.2616 1.85198 17.1941C1.81149 17.1265 1.79008 17.0492 1.79004 16.9704V4.66112C1.79008 4.58234 1.81149 4.50505 1.85198 4.43748C1.89247 4.3699 1.95054 4.31458 2.01999 4.2774C2.08944 4.24021 2.16767 4.22256 2.24636 4.22633C2.32505 4.23009 2.40124 4.25513 2.46682 4.29877L10.5003 9.65469V4.66112C10.5003 4.58234 10.5217 4.50505 10.5622 4.43748C10.6027 4.3699 10.6608 4.31458 10.7302 4.2774C10.7997 4.24021 10.8779 4.22256 10.9566 4.22633C11.0353 4.23009 11.1115 4.25513 11.1771 4.29877L20.409 10.4534C20.4687 10.4932 20.5176 10.5471 20.5514 10.6103C20.5852 10.6735 20.6029 10.7441 20.6029 10.8158C20.6029 10.8875 20.5852 10.958 20.5514 11.0212C20.5176 11.0845 20.4687 11.1383 20.409 11.1781L11.1771 17.3328C11.1115 17.3764 11.0353 17.4014 10.9566 17.4052C10.8779 17.409 10.7997 17.3913 10.7302 17.3541C10.6608 17.317 10.6027 17.2616 10.5622 17.1941C10.5217 17.1265 10.5003 17.0492 10.5003 16.9704V11.9768Z" fill="white"/>
</svg>
