<svg width="21" height="21" viewBox="0 0 21 21" fill="none" xmlns="http://www.w3.org/2000/svg">
<path d="M17.378 1.94067H3.62142C2.67566 1.94067 1.90186 2.71448 1.90186 3.66024V13.9776C1.90186 14.9234 2.67566 15.6972 3.62142 15.6972H7.06056V18.2766C7.06056 18.7924 7.40447 19.1363 7.92034 19.1363H8.35023C8.52219 19.1363 8.78012 19.0504 8.95208 18.8784L12.1333 15.6972H17.378C18.3237 15.6972 19.0975 14.9234 19.0975 13.9776V3.66024C19.0975 2.71448 18.3237 1.94067 17.378 1.94067ZM9.63991 11.3983H6.20077V7.7872L7.31849 5.37981H9.03806L7.83436 7.95916H9.63991V11.3983ZM14.7986 11.3983H11.3595V7.7872L12.4772 5.37981H14.1968L12.9931 7.95916H14.7986V11.3983Z" fill="white"/>
</svg>
