<svg width="21" height="22" viewBox="0 0 21 22" fill="none" xmlns="http://www.w3.org/2000/svg">
<path d="M10.0648 2.52637C8.7942 2.52637 7.57569 3.03109 6.67727 3.92951C5.77886 4.82793 5.27413 6.04644 5.27413 7.31699C5.27413 8.58755 5.77886 9.80606 6.67727 10.7045C7.57569 11.6029 8.7942 12.1076 10.0648 12.1076C11.3353 12.1076 12.5538 11.6029 13.4522 10.7045C14.3507 9.80606 14.8554 8.58755 14.8554 7.31699C14.8554 6.04644 14.3507 4.82793 13.4522 3.92951C12.5538 3.03109 11.3353 2.52637 10.0648 2.52637ZM10.9358 16.4627C10.9358 15.8336 11.0597 15.2107 11.3004 14.6294C11.5412 14.0482 11.8941 13.5201 12.3389 13.0752C12.7838 12.6304 13.3119 12.2775 13.8931 12.0368C14.4743 11.796 15.0973 11.6721 15.7264 11.6721C16.3555 11.6721 16.9785 11.796 17.5597 12.0368C18.1409 12.2775 18.669 12.6304 19.1139 13.0752C19.5587 13.5201 19.9116 14.0482 20.1524 14.6294C20.3931 15.2107 20.517 15.8336 20.517 16.4627C20.517 17.7333 20.0123 18.9518 19.1139 19.8502C18.2155 20.7486 16.997 21.2534 15.7264 21.2534C14.4559 21.2534 13.2373 20.7486 12.3389 19.8502C11.4405 18.9518 10.9358 17.7333 10.9358 16.4627ZM15.7264 13.4142C15.1984 13.4139 14.6793 13.5509 14.2201 13.8116C13.7609 14.0723 13.3773 14.4478 13.1068 14.9013C12.8364 15.3549 12.6883 15.8709 12.6773 16.3988C12.6662 16.9268 12.7925 17.4485 13.0437 17.913L17.1767 13.7809C16.7312 13.5401 16.2328 13.414 15.7264 13.4142ZM18.4092 15.0125L14.2762 19.1446C14.8538 19.4578 15.5172 19.5759 16.1675 19.4814C16.8178 19.3869 17.4201 19.0848 17.8847 18.6202C18.3494 18.1556 18.6515 17.5532 18.746 16.903C18.8405 16.2527 18.7223 15.5902 18.4092 15.0125ZM10.7224 12.9786C10.0091 14.0003 9.62745 15.2167 9.62925 16.4627C9.62925 17.7579 10.0334 18.9591 10.7224 19.9468H1.79004V18.2048C1.79004 16.8187 2.34065 15.4894 3.32074 14.5093C4.30083 13.5293 5.63012 12.9786 7.01618 12.9786H10.7224Z" fill="white"/>
</svg>
