<svg width="22" height="23" viewBox="0 0 22 23" fill="none" xmlns="http://www.w3.org/2000/svg">
<path d="M10.9993 21.6682C9.59881 21.6682 8.2752 21.3991 7.02844 20.8607C5.78168 20.3224 4.69307 19.588 3.76262 18.6576C2.83216 17.7271 2.09777 16.6385 1.55944 15.3917C1.02112 14.145 0.751953 12.8214 0.751953 11.4209C0.751953 10.0034 1.02112 8.67565 1.55944 7.43777C2.09777 6.1999 2.83216 5.11539 3.76262 4.18425C4.69307 3.25311 5.78168 2.51872 7.02844 1.98107C8.2752 1.44343 9.59881 1.17427 10.9993 1.17358C12.4168 1.17358 13.7449 1.44275 14.9834 1.98107C16.222 2.5194 17.3062 3.25379 18.2359 4.18425C19.1657 5.11471 19.9001 6.19921 20.4391 7.43777C20.9781 8.67633 21.2473 10.004 21.2466 11.4209C21.2466 12.8214 20.9774 14.145 20.4391 15.3917C19.9008 16.6385 19.1664 17.7275 18.2359 18.6586C17.3055 19.5897 16.221 20.3241 14.9824 20.8618C13.7439 21.3994 12.4161 21.6682 10.9993 21.6682ZM10.9993 19.5675C11.4433 18.9527 11.8276 18.3122 12.1521 17.6462C12.4766 16.9801 12.7413 16.2713 12.9463 15.5198H9.05229C9.25723 16.2713 9.52196 16.9801 9.84645 17.6462C10.171 18.3122 10.5552 18.9527 10.9993 19.5675ZM8.33497 19.1576C8.02755 18.594 7.75873 18.0089 7.52851 17.4023C7.29829 16.7956 7.10598 16.1682 6.95159 15.5198H3.92862C4.42391 16.3738 5.04319 17.1167 5.78646 17.7486C6.52974 18.3806 7.37924 18.8502 8.33497 19.1576ZM13.6636 19.1576C14.62 18.8502 15.4698 18.3806 16.2131 17.7486C16.9564 17.1167 17.5753 16.3738 18.0699 15.5198H15.047C14.8933 16.1688 14.7013 16.7967 14.4711 17.4033C14.2408 18.0099 13.9717 18.5947 13.6636 19.1576ZM3.0576 13.4704H6.54169C6.49046 13.1288 6.4522 12.7917 6.42692 12.459C6.40165 12.1263 6.38867 11.7802 6.38798 11.4209C6.3873 11.0616 6.40028 10.7159 6.42692 10.3839C6.45357 10.0519 6.49182 9.71439 6.54169 9.37144H3.0576C2.97221 9.71302 2.90833 10.0505 2.86598 10.3839C2.82362 10.7173 2.8021 11.0629 2.80142 11.4209C2.80074 11.7789 2.82225 12.1249 2.86598 12.459C2.9097 12.793 2.97357 13.1302 3.0576 13.4704ZM8.59116 13.4704H13.4074C13.4586 13.1288 13.4972 12.7917 13.5232 12.459C13.5492 12.1263 13.5618 11.7802 13.5611 11.4209C13.5604 11.0616 13.5474 10.7159 13.5222 10.3839C13.4969 10.0519 13.4586 9.71439 13.4074 9.37144H8.59116C8.53992 9.71302 8.50166 10.0505 8.47639 10.3839C8.45111 10.7173 8.43813 11.0629 8.43745 11.4209C8.43676 11.7789 8.44974 12.1249 8.47639 12.459C8.50303 12.793 8.54129 13.1302 8.59116 13.4704ZM15.4569 13.4704H18.941C19.0264 13.1288 19.0906 12.7917 19.1336 12.459C19.1766 12.1263 19.1978 11.7802 19.1971 11.4209C19.1965 11.0616 19.1753 10.7159 19.1336 10.3839C19.0919 10.0519 19.0277 9.71439 18.941 9.37144H15.4569C15.5081 9.71302 15.5467 10.0505 15.5727 10.3839C15.5986 10.7173 15.6113 11.0629 15.6106 11.4209C15.6099 11.7789 15.5969 12.1249 15.5716 12.459C15.5464 12.793 15.5081 13.1302 15.4569 13.4704ZM15.047 7.32198H18.0699C17.5746 6.46804 16.9557 5.7251 16.2131 5.09319C15.4705 4.46127 14.6207 3.9916 13.6636 3.68418C13.971 4.24778 14.2402 4.8329 14.4711 5.43955C14.702 6.04619 14.8939 6.67367 15.047 7.32198ZM9.05229 7.32198H12.9463C12.7413 6.57051 12.4766 5.86174 12.1521 5.19566C11.8276 4.52958 11.4433 3.88913 10.9993 3.27429C10.5552 3.88913 10.171 4.52958 9.84645 5.19566C9.52196 5.86174 9.25723 6.57051 9.05229 7.32198ZM3.92862 7.32198H6.95159C7.1053 6.67298 7.2976 6.04516 7.52851 5.43852C7.75942 4.83188 8.02824 4.2471 8.33497 3.68418C7.37856 3.9916 6.52871 4.46127 5.78544 5.09319C5.04217 5.7251 4.42323 6.46804 3.92862 7.32198Z" fill="white"/>
</svg>
