<svg width="39" height="39" viewBox="0 0 39 39" fill="none" xmlns="http://www.w3.org/2000/svg">
<path d="M19.5 3.65625C16.3664 3.65625 13.3032 4.58547 10.6977 6.3264C8.0922 8.06734 6.06147 10.5418 4.86229 13.4369C3.66311 16.3319 3.34936 19.5176 3.96069 22.591C4.57203 25.6644 6.081 28.4874 8.29678 30.7032C10.5126 32.919 13.3357 34.428 16.409 35.0393C19.4824 35.6507 22.6681 35.3369 25.5631 34.1377C28.4582 32.9385 30.9327 30.9078 32.6736 28.3023C34.4145 25.6968 35.3438 22.6336 35.3438 19.5C35.3385 15.2996 33.6676 11.2727 30.6974 8.30257C27.7273 5.33242 23.7004 3.66149 19.5 3.65625ZM12.7969 21.3281C12.4353 21.3281 12.0819 21.2209 11.7812 21.02C11.4806 20.8192 11.2463 20.5336 11.1079 20.1996C10.9695 19.8655 10.9333 19.498 11.0039 19.1433C11.0744 18.7887 11.2485 18.463 11.5042 18.2073C11.7599 17.9517 12.0856 17.7775 12.4402 17.707C12.7949 17.6365 13.1624 17.6727 13.4965 17.811C13.8305 17.9494 14.116 18.1837 14.3169 18.4843C14.5178 18.785 14.625 19.1384 14.625 19.5C14.625 19.9848 14.4324 20.4498 14.0896 20.7927C13.7467 21.1355 13.2817 21.3281 12.7969 21.3281ZM19.5 21.3281C19.1384 21.3281 18.785 21.2209 18.4844 21.02C18.1837 20.8192 17.9494 20.5336 17.811 20.1996C17.6727 19.8655 17.6365 19.498 17.707 19.1433C17.7775 18.7887 17.9517 18.463 18.2073 18.2073C18.463 17.9517 18.7887 17.7775 19.1434 17.707C19.498 17.6365 19.8656 17.6727 20.1996 17.811C20.5336 17.9494 20.8192 18.1837 21.02 18.4843C21.2209 18.785 21.3281 19.1384 21.3281 19.5C21.3281 19.9848 21.1355 20.4498 20.7927 20.7927C20.4498 21.1355 19.9849 21.3281 19.5 21.3281ZM26.2031 21.3281C25.8416 21.3281 25.4881 21.2209 25.1875 21.02C24.8868 20.8192 24.6525 20.5336 24.5142 20.1996C24.3758 19.8655 24.3396 19.498 24.4101 19.1433C24.4807 18.7887 24.6548 18.463 24.9105 18.2073C25.1661 17.9517 25.4919 17.7775 25.8465 17.707C26.2011 17.6365 26.5687 17.6727 26.9027 17.811C27.2368 17.9494 27.5223 18.1837 27.7232 18.4843C27.924 18.785 28.0313 19.1384 28.0313 19.5C28.0313 19.9848 27.8386 20.4498 27.4958 20.7927C27.153 21.1355 26.688 21.3281 26.2031 21.3281Z" fill="white"/>
</svg>
